<svg width="194" height="67" viewBox="0 0 194 67" fill="none" xmlns="http://www.w3.org/2000/svg">
<path d="M13.897 64.1302H37.7631L18.8342 39.2849H10.8837C4.87171 39.2849 0 44.1693 0 50.197C0 57.8909 6.22065 64.1302 13.897 64.1302Z" fill="#00AAF7"/>
<path d="M27.1465 5.47592L27.7603 4.76807C27.5468 4.99915 27.3406 5.23267 27.1465 5.47592Z" fill="#1A759F"/>
<path d="M76.4459 40.9583L48.9285 5.62912C44.2023 -0.43746 35.4633 -1.51504 29.4125 3.22341C28.9006 3.62477 28.4372 4.06261 27.998 4.51748L58.7204 43.5368C63.0414 49.0244 62.5125 56.7037 57.6699 61.0652C62.5319 64.383 69.1626 64.3514 74.0464 60.5276C80.0997 55.7891 81.1745 47.0274 76.4483 40.9608L76.4459 40.9583Z" fill="#024FC5"/>
<g style="mix-blend-mode:overlay">
<path d="M27.9878 4.50537L27.7598 4.76808C27.8374 4.68294 27.915 4.60024 27.9951 4.51753L27.9854 4.50537H27.9878Z" fill="#02F5DB"/>
</g>
<path d="M54.5286 58.1196L27.0112 22.7904C22.9571 17.5849 23.1827 10.4043 27.1471 5.47607L19.1165 14.7316C14.9726 19.6622 14.9678 27.0862 19.1092 32.5227L39.1153 58.7886C43.543 64.6022 51.6051 65.8671 57.0494 61.6054C57.2677 61.4351 57.4643 61.2478 57.6681 61.0653C56.5035 60.2724 55.4408 59.2921 54.5286 58.1196Z" fill="#00AAF7"/>
<path d="M58.7202 43.5371L27.9978 4.51782C27.9177 4.60053 27.8401 4.68323 27.7625 4.76837L27.1486 5.47622C23.1843 10.4068 22.9587 17.5851 27.0128 22.7905L54.5302 58.1198C55.4424 59.2922 56.5075 60.2725 57.6696 61.0655C62.5122 56.7041 63.0411 49.0248 58.7202 43.5371Z" fill="#0071CE"/>
<path d="M105.749 16.2812C106.61 16.8261 107.593 17.101 108.673 17.101C109.752 17.101 110.737 16.8261 111.596 16.2812C111.844 16.1256 112.077 15.9529 112.292 15.7656C112.326 16.0988 112.465 16.3883 112.698 16.6218C113.246 17.174 114.214 17.174 114.762 16.6218C115.039 16.3469 115.177 15.9966 115.177 15.5855V10.6914H115.172C115.133 9.63086 114.864 8.6603 114.367 7.79921C113.831 6.87 113.096 6.1281 112.183 5.59052C111.269 5.05051 110.225 4.77808 109.083 4.77808C107.94 4.77808 106.892 5.05051 105.972 5.59052C105.053 6.1281 104.315 6.87243 103.779 7.79921C103.243 8.72841 102.969 9.78897 102.969 10.9468C102.969 12.1047 103.219 13.1555 103.709 14.0725C104.201 14.9969 104.888 15.7388 105.742 16.2764L105.749 16.2812ZM110.774 13.9947C110.286 14.2939 109.718 14.4472 109.09 14.4472C108.462 14.4472 107.918 14.2988 107.416 13.9947C106.916 13.6931 106.518 13.2723 106.227 12.7469C105.936 12.219 105.788 11.6158 105.788 10.9493C105.788 10.2828 105.936 9.66005 106.227 9.1322C106.516 8.60679 106.916 8.1884 107.416 7.88434C107.911 7.58515 108.476 7.4319 109.09 7.4319C109.704 7.4319 110.284 7.58515 110.774 7.88434C111.264 8.18597 111.657 8.60679 111.941 9.12977C112.227 9.65761 112.37 10.2706 112.37 10.9493C112.37 11.6279 112.225 12.2214 111.941 12.7493C111.657 13.2747 111.264 13.6931 110.774 13.9947Z" fill="white"/>
<path d="M119 21.8805C119.427 21.8805 119.779 21.7395 120.048 21.4597C120.313 21.1849 120.449 20.837 120.449 20.4284V15.7653C120.808 16.0718 121.206 16.3345 121.637 16.5486C122.372 16.9134 123.188 17.0983 124.061 17.0983C125.141 17.0983 126.126 16.8234 126.985 16.2786C127.841 15.7386 128.525 14.9967 129.018 14.0747C129.51 13.1553 129.758 12.102 129.758 10.949C129.758 9.79603 129.486 8.73061 128.947 7.8014C128.411 6.8722 127.676 6.1303 126.764 5.59272C125.849 5.05271 124.799 4.78027 123.641 4.78027C122.484 4.78027 121.455 5.05271 120.541 5.59272C119.629 6.1303 118.898 6.87463 118.367 7.80384C117.838 8.73304 117.561 9.78873 117.547 10.949V20.4308C117.547 20.8419 117.688 21.1897 117.962 21.467C118.236 21.7443 118.585 21.883 118.995 21.883L119 21.8805ZM120.366 10.949C120.366 10.2704 120.512 9.65738 120.795 9.12953C121.077 8.60655 121.472 8.18817 121.97 7.88654C122.467 7.58491 123.03 7.4341 123.644 7.4341C124.258 7.4341 124.837 7.58735 125.328 7.88654C125.82 8.1906 126.218 8.60898 126.507 9.1344C126.798 9.66224 126.946 10.2752 126.946 10.9515C126.946 11.6277 126.798 12.2188 126.507 12.749C126.216 13.2745 125.82 13.6953 125.328 13.9969C124.84 14.2961 124.275 14.4493 123.644 14.4493C123.013 14.4493 122.472 14.301 121.97 13.9969C121.472 13.6953 121.077 13.2769 120.793 12.7515C120.509 12.2236 120.364 11.618 120.364 10.9515L120.366 10.949Z" fill="white"/>
<path d="M133.373 16.4463C133.907 16.8258 134.528 17.0179 135.217 17.0179H135.258C135.755 17.0179 136.177 16.8939 136.505 16.6506C136.867 16.3831 137.058 16.0158 137.058 15.5876C137.058 15.1863 136.937 14.8457 136.699 14.5782C136.454 14.3033 136.119 14.1574 135.734 14.1574H135.214C135.105 14.1574 134.962 14.1233 134.804 13.8533C134.647 13.5833 134.567 13.2233 134.567 12.783V1.42823C134.567 1.01714 134.431 0.671731 134.161 0.404159C133.625 -0.133417 132.655 -0.133417 132.116 0.404159C131.847 0.674163 131.711 1.01714 131.711 1.42823V12.7806C131.711 13.5833 131.857 14.3057 132.14 14.9284C132.432 15.5658 132.844 16.0766 133.368 16.4463H133.373Z" fill="white"/>
<path d="M141.05 5.26712C140.524 4.73928 139.539 4.71982 138.978 5.26226C138.699 5.53226 138.559 5.88497 138.559 6.31309V15.5662C138.559 15.9773 138.699 16.3276 138.973 16.6024C139.248 16.8797 139.597 17.0184 140.007 17.0184C140.417 17.0184 140.786 16.8773 141.055 16.5976C141.32 16.3227 141.455 15.9749 141.455 15.5662V6.31309C141.455 5.8874 141.32 5.53713 141.05 5.26712Z" fill="white"/>
<path d="M140.007 3.79272C140.485 3.79272 140.902 3.61758 141.247 3.27217C141.591 2.92676 141.766 2.50837 141.766 2.02918C141.766 1.54998 141.591 1.13159 141.247 0.786183C140.558 0.0953609 139.454 0.0953609 138.767 0.786183C138.423 1.13159 138.248 1.54998 138.248 2.02918C138.248 2.50837 138.423 2.92676 138.767 3.27217C139.112 3.61758 139.529 3.79272 140.007 3.79272Z" fill="white"/>
<path d="M147.032 16.6217C147.294 16.359 147.425 16.0184 147.425 15.6073V12.6057L148.022 12.073L151.71 16.6436C151.955 16.9476 152.282 17.1228 152.656 17.152C152.695 17.1544 152.731 17.1568 152.77 17.1568C153.098 17.1568 153.398 17.0449 153.668 16.826H153.67C153.988 16.5609 154.165 16.2422 154.194 15.8774C154.223 15.5198 154.114 15.1841 153.869 14.8825L150.092 10.2194L153.626 7.05721C153.908 6.79207 154.061 6.48071 154.083 6.12801C154.102 5.77043 153.976 5.44205 153.719 5.16475C153.471 4.87771 153.151 4.71717 152.792 4.69771C152.433 4.68068 152.098 4.80474 151.817 5.06745L147.428 8.99589V1.40658C147.428 0.995489 147.294 0.654943 147.032 0.392236C146.508 -0.130745 145.533 -0.130745 145.009 0.392236C144.747 0.654943 144.613 0.995489 144.613 1.40658V15.6073C144.613 16.0184 144.747 16.359 145.009 16.6217C145.533 17.1471 146.511 17.1471 147.032 16.6217Z" fill="white"/>
<path d="M158.605 16.281C159.466 16.8259 160.448 17.1007 161.528 17.1007C162.608 17.1007 163.593 16.8259 164.452 16.281C164.699 16.1253 164.932 15.9526 165.148 15.7653C165.182 16.0986 165.32 16.388 165.553 16.6215C166.101 17.1737 167.069 17.1737 167.618 16.6215C167.894 16.3467 168.033 15.9964 168.033 15.5853V10.6912H168.028C167.989 9.63061 167.72 8.66006 167.222 7.79896C166.686 6.86976 165.951 6.12785 165.039 5.59028C164.124 5.05027 163.081 4.77783 161.938 4.77783C160.795 4.77783 159.747 5.05027 158.828 5.59028C157.908 6.12785 157.171 6.87219 156.635 7.79896C156.098 8.72817 155.824 9.78872 155.824 10.9466C155.824 12.1044 156.074 13.1553 156.564 14.0723C157.057 14.9966 157.743 15.7385 158.597 16.2761L158.605 16.281ZM163.629 13.9945C163.141 14.2937 162.574 14.4469 161.945 14.4469C161.317 14.4469 160.774 14.2985 160.271 13.9945C159.772 13.6928 159.374 13.272 159.083 12.7466C158.791 12.2188 158.643 11.6155 158.643 10.949C158.643 10.2825 158.791 9.6598 159.083 9.13196C159.371 8.60654 159.772 8.18816 160.271 7.8841C160.766 7.5849 161.332 7.43166 161.945 7.43166C162.559 7.43166 163.139 7.5849 163.629 7.8841C164.119 8.18572 164.512 8.60654 164.796 9.12952C165.082 9.65737 165.226 10.2704 165.226 10.949C165.226 11.6277 165.08 12.2212 164.796 12.749C164.512 13.2745 164.119 13.6928 163.629 13.9945Z" fill="white"/>
<path d="M172.11 16.6288C172.971 16.9402 173.92 17.0983 174.929 17.0983C175.939 17.0983 176.846 16.9329 177.552 16.6045C178.27 16.2713 178.828 15.8115 179.207 15.2375C179.587 14.661 179.779 14.0091 179.779 13.2963C179.779 12.6712 179.626 12.1093 179.325 11.6228C179.027 11.1436 178.542 10.7228 177.879 10.3725C177.246 10.0368 176.385 9.75953 175.317 9.54548C174.599 9.39953 174.049 9.24871 173.687 9.10033C173.279 8.93249 173.136 8.78168 173.088 8.70627C172.998 8.57006 172.954 8.41924 172.954 8.2441C172.954 8.06897 173 7.86221 173.369 7.67977C173.736 7.49977 174.197 7.40733 174.742 7.40733C175.225 7.40733 175.655 7.46328 176.016 7.57761C176.358 7.68464 176.681 7.8841 176.984 8.17599C177.246 8.42167 177.571 8.57979 177.947 8.65033C178.357 8.7233 178.719 8.65519 179.039 8.43384C179.352 8.19789 179.527 7.88653 179.546 7.52896C179.566 7.18111 179.442 6.85273 179.19 6.56327C178.736 6.00137 178.117 5.55622 177.355 5.24243C176.608 4.93351 175.74 4.77783 174.781 4.77783C174.034 4.77783 173.309 4.89946 172.62 5.1427C171.911 5.39325 171.319 5.77758 170.861 6.29083C170.383 6.82597 170.14 7.50463 170.14 8.30735C170.14 9.22439 170.502 10.0101 171.217 10.6377C171.904 11.2433 172.957 11.6812 174.444 11.9755C175.706 12.2017 176.264 12.4693 176.509 12.6517C176.911 12.9534 176.95 13.2282 176.943 13.4058C176.936 13.5834 176.882 13.851 176.472 14.1064C176.116 14.3301 175.567 14.442 174.844 14.442C174.264 14.442 173.736 14.3374 173.27 14.1331C172.806 13.9288 172.469 13.7123 172.268 13.4861C172.011 13.2112 171.698 13.0482 171.336 12.9996C170.96 12.9509 170.584 13.075 170.23 13.3572C169.91 13.6028 169.723 13.9264 169.674 14.318C169.626 14.7169 169.752 15.0866 170.045 15.4004C170.54 15.8967 171.234 16.3077 172.108 16.624L172.11 16.6288Z" fill="white"/>
<path d="M183.325 3.79272C183.803 3.79272 184.221 3.61758 184.565 3.27217C184.91 2.92676 185.084 2.50837 185.084 2.02918C185.084 1.54998 184.91 1.13159 184.565 0.786183C183.876 0.0953609 182.772 0.0953609 182.086 0.786183C181.741 1.13159 181.566 1.54998 181.566 2.02918C181.566 2.50837 181.741 2.92676 182.086 3.27217C182.43 3.61758 182.847 3.79272 183.325 3.79272Z" fill="white"/>
<path d="M182.297 5.26201C182.018 5.53202 181.877 5.88473 181.877 6.31284V15.566C181.877 15.9771 182.018 16.3273 182.292 16.6022C182.566 16.8795 182.915 17.0182 183.325 17.0182C183.735 17.0182 184.104 16.8771 184.373 16.5973C184.638 16.3225 184.774 15.9746 184.774 15.566V6.31284C184.774 5.88716 184.638 5.53688 184.369 5.26688C183.842 4.73903 182.857 4.71957 182.297 5.26201Z" fill="white"/>
<path d="M109.505 29.6865C108.612 29.6865 107.78 29.8981 107.033 30.319C106.793 30.4528 106.567 30.6036 106.358 30.7714C106.3 30.5379 106.193 30.3409 106.038 30.1852C105.791 29.9371 105.436 29.8106 104.985 29.8106C104.534 29.8106 104.197 29.9395 103.942 30.1949C103.687 30.4503 103.559 30.803 103.559 31.2409V40.5353C103.559 40.9902 103.69 41.3478 103.947 41.5959C104.202 41.8416 104.548 41.9656 104.985 41.9656C105.422 41.9656 105.796 41.8343 106.043 41.5764C106.288 41.321 106.412 40.9708 106.412 40.5353V34.4639C106.412 33.9288 106.574 33.5006 106.912 33.1577C107.263 32.8001 107.758 32.5495 108.384 32.4133C109.032 32.2747 109.782 32.2868 110.599 32.4547C110.83 32.5082 111.051 32.5155 111.254 32.479C111.475 32.4401 111.677 32.3403 111.849 32.1895C112.031 32.029 112.152 31.8076 112.205 31.5474C112.285 31.236 112.31 30.6425 111.577 30.156C111.099 29.8398 110.422 29.6865 109.505 29.6865Z" fill="white"/>
<path d="M124.846 41.5693C125.123 41.2944 125.261 40.9441 125.261 40.5331V35.6389H125.256C125.217 34.5784 124.948 33.6078 124.451 32.7467C123.915 31.8175 123.179 31.0756 122.267 30.538C121.353 29.998 120.309 29.7256 119.167 29.7256C118.024 29.7256 116.976 29.998 116.056 30.538C115.137 31.0756 114.399 31.8199 113.863 32.7467C113.327 33.6759 113.053 34.7365 113.053 35.8943C113.053 37.0522 113.303 38.103 113.793 39.0201C114.285 39.9444 114.972 40.6863 115.826 41.2239C116.687 41.7688 117.67 42.0436 118.749 42.0436C119.829 42.0436 120.814 41.7688 121.673 41.2239C121.92 41.0682 122.153 40.8955 122.369 40.7082C122.403 41.0414 122.541 41.3309 122.774 41.5644C123.323 42.1166 124.291 42.1166 124.839 41.5644L124.846 41.5693ZM120.85 38.9422C120.363 39.2414 119.795 39.3947 119.167 39.3947C118.538 39.3947 117.995 39.2463 117.493 38.9422C116.993 38.6406 116.595 38.2198 116.304 37.6944C116.013 37.1665 115.865 36.5633 115.865 35.8968C115.865 35.2303 116.013 34.6076 116.304 34.0797C116.592 33.5543 116.993 33.1359 117.493 32.8319C117.988 32.5327 118.553 32.3794 119.167 32.3794C119.78 32.3794 120.36 32.5327 120.85 32.8319C121.34 33.1335 121.734 33.5543 122.017 34.0773C122.304 34.6051 122.447 35.2181 122.447 35.8968C122.447 36.5754 122.301 37.1689 122.017 37.6968C121.734 38.2222 121.34 38.6406 120.85 38.9422Z" fill="white"/>
<path d="M138.633 41.5692C138.91 41.2943 139.048 40.9441 139.048 40.533V35.4175C139.048 34.2061 138.813 33.1626 138.347 32.3161C137.876 31.4647 137.224 30.8055 136.409 30.3628C135.601 29.925 134.676 29.7036 133.662 29.7036C132.648 29.7036 131.794 29.9225 131.008 30.3555C130.809 30.465 130.62 30.5842 130.44 30.7155C130.372 30.5258 130.268 30.3579 130.123 30.2144C129.596 29.6866 128.611 29.6671 128.051 30.2096C127.772 30.4796 127.631 30.8323 127.631 31.2604V40.533C127.631 40.9441 127.772 41.2943 128.046 41.5692C128.606 42.1335 129.601 42.1117 130.127 41.5643C130.392 41.2895 130.528 40.9416 130.528 40.533V34.6707C130.528 34.2353 130.639 33.8631 130.872 33.5348C131.11 33.1942 131.437 32.9193 131.848 32.715C132.719 32.2772 133.939 32.3161 134.766 32.7272C135.191 32.9364 135.521 33.2502 135.773 33.6856C136.025 34.121 136.156 34.7048 136.156 35.4224V40.5378C136.156 40.9489 136.297 41.2992 136.571 41.5741C136.845 41.8514 137.192 41.99 137.605 41.99C138.017 41.99 138.362 41.8489 138.638 41.5741L138.633 41.5692Z" fill="white"/>
<path d="M141.979 39.0322C142.501 39.9565 143.234 40.696 144.153 41.236C145.073 41.776 146.133 42.0485 147.305 42.0485C148.894 42.0485 150.238 41.5449 151.313 40.5403C151.589 40.263 151.713 39.9249 151.672 39.5649C151.633 39.2195 151.454 38.913 151.143 38.6552C150.886 38.4362 150.568 38.3365 150.236 38.3657C149.923 38.3925 149.622 38.5238 149.338 38.7549C149.074 38.9714 148.777 39.1344 148.46 39.2365C148.135 39.3411 147.744 39.3946 147.305 39.3946C146.647 39.3946 146.067 39.2414 145.58 38.9422C145.09 38.6406 144.699 38.2246 144.425 37.7089C144.146 37.1884 144.005 36.5778 144.005 35.8967C144.005 35.1743 144.144 34.5419 144.418 34.0189C144.689 33.4959 145.056 33.1018 145.539 32.8099C146.014 32.5229 146.575 32.377 147.203 32.377C148.108 32.377 148.843 32.6908 149.457 33.3427C149.704 33.5908 149.986 33.7489 150.296 33.8121C150.634 33.8802 150.963 33.8121 151.245 33.6102C151.57 33.3743 151.776 33.0872 151.854 32.7589C151.912 32.5083 151.91 32.1264 151.563 31.7275C150.988 31.0634 150.33 30.5599 149.605 30.2242C148.879 29.891 148.071 29.7207 147.203 29.7207C146.046 29.7207 145.002 29.9858 144.102 30.5113C143.202 31.0367 142.484 31.7761 141.967 32.7078C141.453 33.6345 141.193 34.7073 141.193 35.8919C141.193 37.0765 141.458 38.1054 141.979 39.0273V39.0322Z" fill="white"/>
<path d="M154.396 39.0247C154.888 39.949 155.575 40.6909 156.429 41.2285C157.29 41.7734 158.273 42.0482 159.353 42.0482C160.432 42.0482 161.417 41.7734 162.276 41.2285C162.524 41.0728 162.756 40.9001 162.972 40.7128C163.006 41.0461 163.145 41.3355 163.378 41.569C163.926 42.1212 164.894 42.1212 165.442 41.569C165.719 41.2942 165.857 40.9439 165.857 40.5328V35.6387H165.852C165.813 34.5781 165.544 33.6076 165.047 32.7465C164.511 31.8173 163.775 31.0754 162.863 30.5378C161.949 29.9978 160.905 29.7253 159.763 29.7253C158.62 29.7253 157.572 29.9978 156.652 30.5378C155.733 31.0754 154.995 31.8197 154.459 32.7465C153.923 33.6757 153.649 34.7362 153.649 35.8941C153.649 37.0519 153.899 38.1028 154.389 39.0198L154.396 39.0247ZM161.451 38.942C160.964 39.2412 160.396 39.3944 159.767 39.3944C159.139 39.3944 158.596 39.246 158.093 38.942C157.594 38.6404 157.196 38.2195 156.905 37.6941C156.613 37.1663 156.465 36.563 156.465 35.8965C156.465 35.23 156.613 34.6073 156.905 34.0795C157.193 33.5541 157.594 33.1357 158.093 32.8316C158.588 32.5324 159.154 32.3792 159.767 32.3792C160.381 32.3792 160.961 32.5324 161.451 32.8316C161.941 33.1332 162.334 33.5541 162.618 34.077C162.904 34.6049 163.048 35.2179 163.048 35.8965C163.048 36.5752 162.902 37.1687 162.618 37.6966C162.334 38.222 161.941 38.6404 161.451 38.942Z" fill="white"/>
<path d="M175.365 32.7248C175.789 32.9339 176.119 33.2477 176.372 33.6831C176.624 34.1186 176.755 34.7024 176.755 35.4199V40.5354C176.755 40.9465 176.896 41.2968 177.17 41.5717C177.444 41.849 177.791 41.9876 178.203 41.9876C178.616 41.9876 178.96 41.8465 179.237 41.5717C179.514 41.2968 179.652 40.9465 179.652 40.5354V35.4199C179.652 34.2086 179.417 33.165 178.951 32.3185C178.48 31.4672 177.827 30.808 177.012 30.3653C176.204 29.9274 175.28 29.7061 174.266 29.7061C173.252 29.7061 172.398 29.925 171.612 30.358C171.413 30.4674 171.223 30.5866 171.044 30.718C170.976 30.5282 170.872 30.3604 170.726 30.2169C170.2 29.689 169.215 29.6696 168.654 30.212C168.375 30.482 168.234 30.8347 168.234 31.2628V40.5354C168.234 40.9465 168.375 41.2968 168.649 41.5717C169.21 42.136 170.204 42.1141 170.731 41.5668C170.995 41.2919 171.131 40.9441 171.131 40.5354V34.6732C171.131 34.2378 171.243 33.8656 171.476 33.5372C171.713 33.1967 172.041 32.9218 172.451 32.7175C173.322 32.2796 174.542 32.3185 175.37 32.7296L175.365 32.7248Z" fill="white"/>
<path d="M193.996 35.6119C193.957 34.527 193.695 33.5492 193.214 32.7003C192.69 31.7759 191.96 31.0413 191.048 30.5159C190.136 29.9929 189.078 29.7253 187.911 29.7253C186.744 29.7253 185.664 29.9905 184.752 30.5159C183.837 31.0413 183.109 31.7759 182.585 32.7003C182.064 33.6222 181.797 34.6973 181.797 35.899C181.797 37.1006 182.042 38.1466 182.527 39.066C183.015 39.9904 183.692 40.7274 184.543 41.2528C185.397 41.7807 186.39 42.0482 187.496 42.0482C188.525 42.0482 189.449 41.7782 190.242 41.2431C190.589 41.0096 190.905 40.7371 191.189 40.4258C191.169 41.1799 191.016 41.8245 190.74 42.345C190.446 42.8996 190.046 43.3229 189.553 43.6026C188.503 44.201 187.12 44.1231 186.147 43.6707C185.64 43.4348 185.213 43.1015 184.885 42.688C184.66 42.3888 184.361 42.1991 184 42.1236C183.624 42.0458 183.265 42.1237 182.923 42.3499C182.614 42.5615 182.425 42.8485 182.357 43.1988C182.287 43.5564 182.382 43.9164 182.631 44.2448C183.262 45.0377 184.043 45.6507 184.953 46.0618C185.858 46.4705 186.838 46.6797 187.872 46.6797C189.073 46.6797 190.148 46.3951 191.072 45.8332C191.992 45.2737 192.719 44.505 193.234 43.5539C193.746 42.6053 194.008 41.5399 194.008 40.3844V35.6095H194.003L193.996 35.6119ZM189.614 38.9517C188.636 39.5404 187.178 39.5404 186.2 38.9517C185.71 38.6574 185.317 38.2463 185.036 37.7282C184.752 37.2076 184.606 36.5922 184.606 35.899C184.606 35.2057 184.752 34.5854 185.036 34.0576C185.317 33.5346 185.71 33.1186 186.2 32.8243C186.688 32.53 187.263 32.3816 187.908 32.3816C188.554 32.3816 189.126 32.53 189.616 32.8243C190.106 33.1186 190.492 33.5322 190.769 34.0551C191.048 34.5854 191.191 35.2057 191.191 35.899C191.191 36.5922 191.05 37.2101 190.771 37.7306C190.495 38.2463 190.106 38.6574 189.619 38.9517H189.614Z" fill="white"/>
<path d="M118.156 55.2249C117.491 54.8455 116.719 54.6533 115.868 54.6533C114.907 54.6533 114.036 54.8649 113.284 55.2833C112.901 55.4974 112.556 55.7552 112.255 56.0544C111.969 55.7187 111.632 55.4414 111.248 55.2249C110.584 54.8455 109.815 54.6533 108.961 54.6533C108.107 54.6533 107.277 54.8674 106.581 55.2931C106.476 55.3563 106.374 55.4244 106.275 55.4974C106.214 55.3831 106.137 55.2785 106.042 55.1836C105.515 54.6558 104.533 54.6387 103.972 55.1787C103.693 55.4487 103.553 55.8014 103.553 56.2296V65.4803C103.553 65.8913 103.693 66.2416 103.968 66.5165C104.528 67.0808 105.523 67.0589 106.049 66.5116C106.314 66.2368 106.45 65.8889 106.45 65.4803V59.618C106.45 58.9393 106.646 58.4018 107.049 57.9736C107.444 57.5528 107.934 57.3485 108.548 57.3485C109.162 57.3485 109.599 57.5188 109.953 57.8715C110.302 58.2169 110.479 58.7764 110.479 59.5377V65.4827C110.479 65.8938 110.62 66.244 110.894 66.5189C111.455 67.0833 112.449 67.0614 112.976 66.5141C113.24 66.2392 113.376 65.8913 113.376 65.4827V59.6204C113.376 58.9393 113.57 58.4018 113.966 57.9736C114.356 57.5553 114.842 57.3509 115.453 57.3509C116.064 57.3509 116.504 57.5212 116.858 57.8739C117.207 58.2193 117.384 58.7788 117.384 59.5402V65.4851C117.384 65.8962 117.525 66.2441 117.799 66.5214C118.073 66.7987 118.423 66.9373 118.833 66.9373C119.243 66.9373 119.611 66.7962 119.881 66.5165C120.145 66.2416 120.281 65.8938 120.281 65.4851V59.5402C120.281 58.5282 120.097 57.6453 119.73 56.9204C119.357 56.1809 118.828 55.6117 118.153 55.2298L118.156 55.2249Z" fill="white"/>
<path d="M133.822 57.6989C133.286 56.7697 132.551 56.0278 131.639 55.4902C130.724 54.9502 129.681 54.6777 128.538 54.6777C127.395 54.6777 126.347 54.9502 125.428 55.4902C124.508 56.0278 123.771 56.7721 123.234 57.6989C122.698 58.6281 122.424 59.6886 122.424 60.8465C122.424 62.0043 122.674 63.0552 123.164 63.9722C123.657 64.8965 124.343 65.6385 125.197 66.176C126.058 66.7209 127.041 66.9958 128.121 66.9958C129.2 66.9958 130.185 66.7209 131.044 66.176C131.292 66.0204 131.525 65.8476 131.74 65.6603C131.774 65.9936 131.913 66.2831 132.146 66.5166C132.694 67.0687 133.662 67.0687 134.21 66.5166C134.487 66.2417 134.625 65.8914 134.625 65.4803V60.5862H134.62C134.582 59.5257 134.312 58.5551 133.815 57.694L133.822 57.6989ZM130.224 63.8919C129.736 64.1911 129.169 64.3444 128.54 64.3444C127.912 64.3444 127.369 64.196 126.866 63.8919C126.367 63.5903 125.969 63.1695 125.678 62.6441C125.386 62.1162 125.238 61.513 125.238 60.8465C125.238 60.18 125.386 59.5573 125.678 59.0294C125.966 58.504 126.367 58.0856 126.866 57.7816C127.361 57.4824 127.927 57.3291 128.54 57.3291C129.154 57.3291 129.734 57.4824 130.224 57.7816C130.714 58.0832 131.107 58.504 131.391 59.027C131.677 59.5548 131.821 60.1678 131.821 60.8465C131.821 61.5251 131.675 62.1187 131.391 62.6465C131.107 63.1719 130.714 63.5903 130.224 63.8919Z" fill="white"/>
<path d="M145.78 55.315C144.972 54.8771 144.047 54.6558 143.033 54.6558C142.019 54.6558 141.165 54.8747 140.379 55.3077C140.18 55.4171 139.991 55.5363 139.811 55.6677C139.744 55.4779 139.639 55.3101 139.494 55.1666C138.967 54.6387 137.982 54.6193 137.422 55.1617C137.143 55.4317 137.002 55.7844 137.002 56.2125V65.4851C137.002 65.8962 137.143 66.2465 137.417 66.5214C137.977 67.0857 138.972 67.0638 139.498 66.5165C139.763 66.2416 139.899 65.8938 139.899 65.4851V59.6229C139.899 59.1875 140.01 58.8153 140.243 58.4869C140.481 58.1464 140.809 57.8715 141.219 57.6672C142.09 57.2293 143.31 57.2682 144.137 57.6793C144.562 57.8885 144.892 58.2023 145.144 58.6377C145.396 59.0731 145.527 59.6569 145.527 60.3745V65.49C145.527 65.9011 145.668 66.2514 145.942 66.5262C146.216 66.8035 146.563 66.9422 146.976 66.9422C147.388 66.9422 147.733 66.8011 148.009 66.5262C148.286 66.2514 148.424 65.9011 148.424 65.49V60.3745C148.424 59.1631 148.189 58.1196 147.723 57.2731C147.252 56.4217 146.6 55.7625 145.785 55.3198L145.78 55.315Z" fill="white"/>
<path d="M156.368 64.0526H155.662C155.335 64.0526 155.075 63.9188 154.845 63.6342C154.597 63.3301 154.476 62.9555 154.476 62.4885V57.7452H155.849C156.24 57.7452 156.565 57.626 156.82 57.3925C157.077 57.1541 157.215 56.8379 157.215 56.4827C157.215 56.0984 157.079 55.77 156.82 55.5292C156.567 55.2957 156.24 55.1765 155.849 55.1765H154.476V52.5737C154.476 52.1626 154.34 51.8172 154.071 51.5472C153.532 51.0096 152.562 51.0096 152.026 51.5472C151.756 51.8172 151.62 52.1602 151.62 52.5737V55.1765H151.058C150.667 55.1765 150.339 55.2957 150.087 55.5292C149.827 55.7676 149.692 56.0984 149.692 56.4827C149.692 56.8403 149.827 57.1541 150.087 57.3925C150.339 57.6284 150.667 57.7452 151.058 57.7452H151.62V62.4885C151.62 63.3107 151.795 64.0647 152.142 64.7288C152.491 65.3977 152.977 65.9329 153.586 66.3221C154.199 66.7137 154.898 66.9131 155.662 66.9131H156.036C156.49 66.9131 156.871 66.7842 157.169 66.5288C157.482 66.2612 157.649 65.8988 157.649 65.4829C157.649 65.0669 157.528 64.741 157.29 64.4734C157.045 64.1985 156.725 64.0526 156.368 64.0526Z" fill="white"/>
<path d="M170.277 57.6989C169.741 56.7697 169.006 56.0278 168.093 55.4902C167.179 54.9502 166.136 54.6777 164.993 54.6777C163.85 54.6777 162.802 54.9502 161.882 55.4902C160.963 56.0278 160.225 56.7721 159.689 57.6989C159.153 58.6281 158.879 59.6886 158.879 60.8465C158.879 62.0043 159.129 63.0552 159.619 63.9722C160.111 64.8965 160.798 65.6385 161.652 66.176C162.513 66.7209 163.496 66.9958 164.576 66.9958C165.655 66.9958 166.64 66.7209 167.499 66.176C167.747 66.0204 167.979 65.8476 168.195 65.6603C168.229 65.9936 168.368 66.2831 168.601 66.5166C169.149 67.0687 170.117 67.0687 170.665 66.5166C170.942 66.2417 171.08 65.8914 171.08 65.4803V60.5862H171.075C171.036 59.5257 170.767 58.5551 170.27 57.694L170.277 57.6989ZM166.677 63.8919C166.189 64.1911 165.621 64.3444 164.993 64.3444C164.364 64.3444 163.821 64.196 163.319 63.8919C162.819 63.5903 162.421 63.1695 162.13 62.6441C161.839 62.1162 161.691 61.513 161.691 60.8465C161.691 60.18 161.839 59.5573 162.13 59.0294C162.419 58.504 162.819 58.0856 163.319 57.7816C163.814 57.4824 164.379 57.3291 164.993 57.3291C165.607 57.3291 166.186 57.4824 166.677 57.7816C167.167 58.0832 167.56 58.504 167.844 59.027C168.13 59.5548 168.273 60.1678 168.273 60.8465C168.273 61.5251 168.127 62.1187 167.844 62.6465C167.56 63.1719 167.167 63.5903 166.677 63.8919Z" fill="white"/>
<path d="M182.892 55.4951C182.031 54.9527 181.046 54.6754 179.968 54.6754C179.095 54.6754 178.28 54.8602 177.545 55.2251C177.113 55.4392 176.715 55.7019 176.356 56.0084V51.3453C176.356 50.9196 176.22 50.5694 175.951 50.2993C175.424 49.7715 174.439 49.752 173.879 50.2945C173.6 50.5645 173.459 50.9172 173.459 51.3453V60.832C173.474 61.9898 173.75 63.0455 174.279 63.9723C174.808 64.9015 175.541 65.6458 176.453 66.1834C177.368 66.7234 178.411 66.9958 179.553 66.9958C180.696 66.9958 181.761 66.7234 182.676 66.1834C183.588 65.6458 184.321 64.9015 184.859 63.9747C185.396 63.0455 185.67 61.9874 185.67 60.8271C185.67 59.6668 185.42 58.6208 184.93 57.7014C184.437 56.7795 183.753 56.0376 182.897 55.4975L182.892 55.4951ZM179.551 64.3444C178.928 64.3444 178.379 64.1961 177.877 63.892C177.38 63.5904 176.984 63.1696 176.703 62.6393C176.416 62.1041 176.271 61.4936 176.271 60.8271C176.271 60.1606 176.416 59.5403 176.7 59.0198C176.982 58.5016 177.38 58.0857 177.877 57.7841C178.374 57.4849 178.937 57.3316 179.551 57.3316C180.165 57.3316 180.745 57.4849 181.235 57.7841C181.73 58.0881 182.125 58.5041 182.414 59.0246C182.705 59.5452 182.851 60.1533 182.851 60.8295C182.851 61.5057 182.703 62.1017 182.411 62.6368C182.123 63.1696 181.725 63.5928 181.232 63.8944C180.745 64.1936 180.179 64.3469 179.549 64.3469L179.551 64.3444Z" fill="white"/>
</svg>
