<svg width="134" height="46" viewBox="0 0 134 46" fill="none" xmlns="http://www.w3.org/2000/svg">
<path d="M9.59896 44.0298H26.0838L13.0092 26.9718H7.51762C3.365 26.9718 0 30.3253 0 34.4637C0 39.7461 4.29674 44.0298 9.59896 44.0298Z" fill="#00AAF7"/>
<path d="M18.75 3.75971L19.174 3.27373C19.0265 3.43238 18.8841 3.59271 18.75 3.75971Z" fill="#1A759F"/>
<path d="M52.8019 28.1208L33.795 3.86493C30.5305 -0.300192 24.4943 -1.04003 20.3149 2.21324C19.9613 2.4888 19.6412 2.78941 19.3379 3.10171L40.5585 29.8911C43.5431 33.6587 43.1778 38.9311 39.8329 41.9255C43.1912 44.2034 47.7711 44.1817 51.1445 41.5564C55.3256 38.3031 56.068 32.2876 52.8035 28.1225L52.8019 28.1208Z" fill="#024FC5"/>
<g style="mix-blend-mode:overlay">
<path d="M19.3314 3.09336L19.1738 3.27372C19.2275 3.21527 19.2811 3.15849 19.3364 3.10171L19.3297 3.09336H19.3314Z" fill="#02F5DB"/>
</g>
<path d="M37.6632 39.903L18.6563 15.6472C15.8561 12.0732 16.0119 7.14324 18.7502 3.75971L13.2033 10.1143C10.341 13.4995 10.3377 18.5965 13.1982 22.3291L27.0169 40.3623C30.0752 44.3537 35.6439 45.2222 39.4043 42.2962C39.5552 42.1793 39.6909 42.0507 39.8317 41.9255C39.0273 41.381 38.2933 40.708 37.6632 39.903Z" fill="#00AAF7"/>
<path d="M40.559 29.8911L19.3384 3.10171C19.2831 3.15849 19.2295 3.21527 19.1758 3.27373L18.7519 3.75971C16.0136 7.14491 15.8578 12.0732 18.658 15.6472L37.6649 39.903C38.295 40.708 39.0307 41.381 39.8334 41.9255C43.1783 38.9311 43.5436 33.6587 40.559 29.8911Z" fill="#0071CE"/>
<path d="M73.0435 11.1781C73.6384 11.5522 74.3171 11.7409 75.0628 11.7409C75.8086 11.7409 76.4889 11.5522 77.0822 11.1781C77.2531 11.0712 77.414 10.9526 77.5631 10.824C77.5866 11.0528 77.6821 11.2516 77.843 11.4119C78.2217 11.791 78.8904 11.791 79.2691 11.4119C79.4601 11.2232 79.5557 10.9827 79.5557 10.7005V7.34031H79.5523C79.5255 6.61217 79.3395 5.94581 78.9959 5.35461C78.6256 4.71665 78.1178 4.20729 77.4877 3.8382C76.8559 3.46745 76.1353 3.28041 75.346 3.28041C74.5567 3.28041 73.8328 3.46745 73.1977 3.8382C72.5626 4.20729 72.0531 4.71832 71.6828 5.35461C71.3124 5.99257 71.123 6.72072 71.123 7.51567C71.123 8.31061 71.2957 9.03207 71.6342 9.66169C71.9743 10.2963 72.4486 10.8057 73.0385 11.1748L73.0435 11.1781ZM76.5141 9.60824C76.1772 9.81366 75.7851 9.91887 75.3511 9.91887C74.9171 9.91887 74.5417 9.817 74.1948 9.60824C73.8496 9.40116 73.5747 9.11224 73.3736 8.75151C73.1725 8.3891 73.0703 7.97493 73.0703 7.51734C73.0703 7.05974 73.1725 6.63221 73.3736 6.2698C73.5731 5.90907 73.8496 5.62182 74.1948 5.41307C74.5366 5.20765 74.9271 5.10244 75.3511 5.10244C75.7751 5.10244 76.1756 5.20765 76.5141 5.41307C76.8526 5.62015 77.1241 5.90907 77.3201 6.26813C77.5179 6.63054 77.6168 7.05139 77.6168 7.51734C77.6168 7.98328 77.5162 8.39077 77.3201 8.75318C77.1241 9.11391 76.8526 9.40116 76.5141 9.60824Z" fill="#052B63"/>
<path d="M82.1972 15.0226C82.4921 15.0226 82.7351 14.9257 82.9211 14.7336C83.1038 14.5449 83.1976 14.3061 83.1976 14.0255V10.824C83.4456 11.0345 83.7205 11.2148 84.0187 11.3618C84.5265 11.6123 85.0896 11.7392 85.6929 11.7392C86.4386 11.7392 87.119 11.5505 87.7122 11.1764C88.3038 10.8057 88.7763 10.2963 89.1165 9.66336C89.4567 9.03208 89.6276 8.30894 89.6276 7.51734C89.6276 6.72573 89.4399 5.99425 89.0679 5.35628C88.6976 4.71832 88.1898 4.20896 87.5597 3.83987C86.9279 3.46912 86.2023 3.28208 85.403 3.28208C84.6036 3.28208 83.8931 3.46912 83.2613 3.83987C82.6312 4.20896 82.1268 4.71999 81.7598 5.35795C81.3945 5.99592 81.2034 6.72072 81.1934 7.51734V14.0272C81.1934 14.3095 81.2906 14.5483 81.4799 14.7387C81.6693 14.929 81.9106 15.0242 82.1938 15.0242L82.1972 15.0226ZM83.1406 7.51734C83.1406 7.05139 83.2412 6.63054 83.4373 6.26813C83.6316 5.90907 83.9048 5.62182 84.2483 5.41474C84.5919 5.20765 84.9807 5.10411 85.4046 5.10411C85.8286 5.10411 86.2291 5.20932 86.5676 5.41474C86.9078 5.62349 87.1827 5.91074 87.3821 6.27148C87.5832 6.63388 87.6854 7.05473 87.6854 7.51901C87.6854 7.98328 87.5832 8.3891 87.3821 8.75318C87.181 9.11391 86.9078 9.40283 86.5676 9.60992C86.2308 9.81533 85.8403 9.92055 85.4046 9.92055C84.9689 9.92055 84.5952 9.81867 84.2483 9.60992C83.9048 9.40283 83.6316 9.11558 83.4356 8.75485C83.2395 8.39245 83.139 7.9766 83.139 7.51901L83.1406 7.51734Z" fill="#052B63"/>
<path d="M92.1245 11.2917C92.4932 11.5522 92.9222 11.6841 93.3981 11.6841H93.4266C93.7701 11.6841 94.0617 11.599 94.2879 11.4319C94.5376 11.2482 94.67 10.9961 94.67 10.7021C94.67 10.4266 94.5862 10.1928 94.422 10.0091C94.2527 9.82034 94.0215 9.72014 93.755 9.72014H93.3964C93.321 9.72014 93.2221 9.69676 93.1132 9.51138C93.0043 9.32601 92.949 9.07884 92.949 8.77656V0.98074C92.949 0.698501 92.8551 0.461353 92.6691 0.277647C92.2988 -0.0914351 91.6284 -0.0914351 91.2564 0.277647C91.0704 0.463023 90.9766 0.698501 90.9766 0.98074V8.77489C90.9766 9.32601 91.0771 9.82201 91.2732 10.2495C91.4743 10.6871 91.7592 11.0378 92.1211 11.2917H92.1245Z" fill="#052B63"/>
<path d="M97.4263 3.61609C97.0627 3.25368 96.3823 3.24032 95.9952 3.61275C95.8025 3.79812 95.7053 4.04028 95.7053 4.33421V10.6871C95.7053 10.9693 95.8025 11.2098 95.9919 11.3985C96.1812 11.5889 96.4225 11.6841 96.7057 11.6841C96.989 11.6841 97.2437 11.5873 97.4297 11.3952C97.6124 11.2065 97.7062 10.9677 97.7062 10.6871V4.33421C97.7062 4.04195 97.6124 3.80146 97.4263 3.61609Z" fill="#052B63"/>
<path d="M96.7052 2.60403C97.0353 2.60403 97.3236 2.48379 97.5615 2.24664C97.7995 2.00949 97.9201 1.72224 97.9201 1.39324C97.9201 1.06424 97.7995 0.776994 97.5615 0.539846C97.0856 0.0655501 96.3231 0.0655501 95.8489 0.539846C95.6109 0.776994 95.4902 1.06424 95.4902 1.39324C95.4902 1.72224 95.6109 2.00949 95.8489 2.24664C96.0868 2.48379 96.3751 2.60403 96.7052 2.60403Z" fill="#052B63"/>
<path d="M101.559 11.4119C101.74 11.2315 101.831 10.9977 101.831 10.7155V8.65464L102.243 8.2889L104.79 11.4269C104.96 11.6357 105.186 11.7559 105.444 11.776C105.471 11.7776 105.496 11.7793 105.523 11.7793C105.749 11.7793 105.957 11.7025 106.143 11.5522H106.144C106.364 11.3702 106.486 11.1514 106.506 10.9009C106.526 10.6554 106.451 10.4249 106.282 10.2178L103.673 7.01632L106.114 4.84525C106.309 4.66321 106.414 4.44944 106.429 4.20729C106.443 3.96179 106.356 3.73633 106.178 3.54594C106.007 3.34888 105.786 3.23865 105.538 3.22529C105.29 3.2136 105.059 3.29878 104.864 3.47914L101.833 6.17628V0.96571C101.833 0.68347 101.74 0.449662 101.559 0.269296C101.197 -0.0897655 100.524 -0.0897655 100.162 0.269296C99.9808 0.449662 99.8887 0.68347 99.8887 0.96571V10.7155C99.8887 10.9977 99.9808 11.2315 100.162 11.4119C100.524 11.7726 101.199 11.7726 101.559 11.4119Z" fill="#052B63"/>
<path d="M109.553 11.1781C110.148 11.5522 110.827 11.7409 111.573 11.7409C112.318 11.7409 112.999 11.5522 113.592 11.1781C113.763 11.0712 113.924 10.9526 114.073 10.824C114.096 11.0528 114.192 11.2516 114.353 11.4119C114.731 11.791 115.4 11.791 115.779 11.4119C115.97 11.2232 116.065 10.9827 116.065 10.7005V7.34031H116.062C116.035 6.61217 115.849 5.94581 115.506 5.35461C115.135 4.71665 114.628 4.20729 113.997 3.8382C113.366 3.46745 112.645 3.28041 111.856 3.28041C111.067 3.28041 110.343 3.46745 109.707 3.8382C109.072 4.20729 108.563 4.71832 108.193 5.35461C107.822 5.99257 107.633 6.72072 107.633 7.51567C107.633 8.31061 107.805 9.03207 108.144 9.66169C108.484 10.2963 108.958 10.8057 109.548 11.1748L109.553 11.1781ZM113.024 9.60824C112.687 9.81366 112.295 9.91887 111.861 9.91887C111.427 9.91887 111.051 9.817 110.705 9.60824C110.359 9.40116 110.085 9.11224 109.883 8.75151C109.682 8.3891 109.58 7.97493 109.58 7.51734C109.58 7.05974 109.682 6.63221 109.883 6.2698C110.083 5.90907 110.359 5.62182 110.705 5.41307C111.046 5.20765 111.437 5.10244 111.861 5.10244C112.285 5.10244 112.685 5.20765 113.024 5.41307C113.362 5.62015 113.634 5.90907 113.83 6.26813C114.028 6.63054 114.127 7.05139 114.127 7.51734C114.127 7.98328 114.026 8.39077 113.83 8.75318C113.634 9.11391 113.362 9.40116 113.024 9.60824Z" fill="#052B63"/>
<path d="M118.879 11.4169C119.474 11.6307 120.129 11.7392 120.826 11.7392C121.523 11.7392 122.15 11.6257 122.638 11.4002C123.134 11.1714 123.519 10.8558 123.781 10.4616C124.044 10.0658 124.176 9.61826 124.176 9.12894C124.176 8.69973 124.071 8.31395 123.863 7.97994C123.657 7.65094 123.321 7.36202 122.864 7.12153C122.427 6.89106 121.832 6.70068 121.094 6.55371C120.598 6.45351 120.218 6.34997 119.968 6.24809C119.687 6.13286 119.588 6.02932 119.554 5.97754C119.492 5.88402 119.462 5.78048 119.462 5.66023C119.462 5.53999 119.494 5.39804 119.749 5.27278C120.002 5.1492 120.32 5.08573 120.697 5.08573C121.031 5.08573 121.327 5.12415 121.577 5.20264C121.813 5.27612 122.036 5.41307 122.246 5.61347C122.427 5.78215 122.651 5.8907 122.911 5.93913C123.194 5.98923 123.444 5.94247 123.665 5.7905C123.881 5.6285 124.002 5.41474 124.015 5.16924C124.029 4.93042 123.943 4.70496 123.769 4.50623C123.456 4.12044 123.028 3.81482 122.502 3.59939C121.986 3.38729 121.386 3.28041 120.724 3.28041C120.208 3.28041 119.707 3.36391 119.231 3.53091C118.742 3.70293 118.333 3.9668 118.016 4.31918C117.686 4.68659 117.518 5.15254 117.518 5.70366C117.518 6.33327 117.768 6.87269 118.262 7.30357C118.737 7.71941 119.464 8.02002 120.491 8.2221C121.362 8.37741 121.748 8.56112 121.917 8.68637C122.195 8.89346 122.222 9.08218 122.217 9.20409C122.212 9.32601 122.175 9.50971 121.892 9.68507C121.646 9.83871 121.267 9.91553 120.768 9.91553C120.367 9.91553 120.002 9.84372 119.68 9.70344C119.36 9.56315 119.127 9.41452 118.988 9.2592C118.81 9.07049 118.594 8.95859 118.344 8.92519C118.085 8.89179 117.825 8.97696 117.58 9.17069C117.359 9.33937 117.23 9.56148 117.196 9.83036C117.163 10.1043 117.25 10.3581 117.453 10.5735C117.795 10.9142 118.274 11.1965 118.877 11.4136L118.879 11.4169Z" fill="#052B63"/>
<path d="M126.627 2.60403C126.957 2.60403 127.245 2.48379 127.483 2.24664C127.721 2.00949 127.842 1.72224 127.842 1.39324C127.842 1.06424 127.721 0.776994 127.483 0.539846C127.007 0.0655501 126.245 0.0655501 125.771 0.539846C125.533 0.776994 125.412 1.06424 125.412 1.39324C125.412 1.72224 125.533 2.00949 125.771 2.24664C126.009 2.48379 126.297 2.60403 126.627 2.60403Z" fill="#052B63"/>
<path d="M125.917 3.61275C125.724 3.79812 125.627 4.04028 125.627 4.33421V10.6871C125.627 10.9693 125.724 11.2098 125.914 11.3985C126.103 11.5889 126.344 11.6841 126.627 11.6841C126.911 11.6841 127.165 11.5873 127.351 11.3952C127.534 11.2065 127.628 10.9677 127.628 10.6871V4.33421C127.628 4.04195 127.534 3.80146 127.348 3.61609C126.984 3.25368 126.304 3.24032 125.917 3.61275Z" fill="#052B63"/>
<path d="M75.6367 20.3818C75.02 20.3818 74.4452 20.5271 73.929 20.816C73.7631 20.9078 73.6073 21.0114 73.4632 21.1266C73.4229 20.9663 73.3492 20.831 73.242 20.7241C73.071 20.5538 72.8264 20.4669 72.5147 20.4669C72.203 20.4669 71.97 20.5555 71.7941 20.7308C71.6181 20.9062 71.5293 21.1483 71.5293 21.4489V27.8302C71.5293 28.1425 71.6198 28.388 71.7974 28.5584C71.9734 28.727 72.213 28.8122 72.5147 28.8122C72.8163 28.8122 73.0744 28.722 73.2453 28.545C73.4146 28.3696 73.5 28.1292 73.5 27.8302V23.6618C73.5 23.2943 73.6123 23.0004 73.8452 22.7649C74.0882 22.5194 74.4301 22.3474 74.8625 22.2539C75.3099 22.1587 75.8277 22.1671 76.3925 22.2823C76.5517 22.319 76.7042 22.324 76.8449 22.299C76.9974 22.2723 77.1365 22.2038 77.2555 22.1003C77.3812 21.99 77.465 21.8381 77.5018 21.6594C77.5571 21.4456 77.5739 21.0381 77.0678 20.7041C76.7377 20.487 76.2701 20.3818 75.6367 20.3818Z" fill="#052B63"/>
<path d="M86.2337 28.54C86.4247 28.3513 86.5203 28.1108 86.5203 27.8285V24.4684H86.5169C86.4901 23.7403 86.3041 23.0739 85.9606 22.4827C85.5902 21.8447 85.0824 21.3354 84.4523 20.9663C83.8206 20.5955 83.1 20.4085 82.3107 20.4085C81.5214 20.4085 80.7974 20.5955 80.1623 20.9663C79.5272 21.3354 79.0177 21.8464 78.6474 22.4827C78.277 23.1207 78.0877 23.8488 78.0877 24.6438C78.0877 25.4387 78.2603 26.1602 78.5988 26.7898C78.939 27.4244 79.4132 27.9338 80.0031 28.3028C80.598 28.6769 81.2767 28.8657 82.0224 28.8657C82.7682 28.8657 83.4485 28.6769 84.0418 28.3028C84.2127 28.196 84.3736 28.0774 84.5227 27.9488C84.5462 28.1776 84.6417 28.3763 84.8026 28.5367C85.1813 28.9158 85.8499 28.9158 86.2287 28.5367L86.2337 28.54ZM83.4737 26.7363C83.1368 26.9417 82.7447 27.047 82.3107 27.047C81.8766 27.047 81.5013 26.9451 81.1544 26.7363C80.8092 26.5292 80.5343 26.2403 80.3332 25.8796C80.1321 25.5172 80.0299 25.103 80.0299 24.6454C80.0299 24.1878 80.1321 23.7603 80.3332 23.3979C80.5326 23.0372 80.8092 22.7499 81.1544 22.5412C81.4962 22.3357 81.8867 22.2305 82.3107 22.2305C82.7346 22.2305 83.1352 22.3357 83.4737 22.5412C83.8122 22.7482 84.0837 23.0372 84.2797 23.3962C84.4775 23.7586 84.5763 24.1795 84.5763 24.6454C84.5763 25.1114 84.4758 25.5189 84.2797 25.8813C84.0837 26.242 83.8122 26.5292 83.4737 26.7363Z" fill="#052B63"/>
<path d="M95.7579 28.54C95.949 28.3513 96.0445 28.1108 96.0445 27.8285V24.3164C96.0445 23.4847 95.8819 22.7683 95.5602 22.1871C95.2351 21.6026 94.7843 21.15 94.2212 20.846C93.6632 20.5454 93.0247 20.3935 92.3242 20.3935C91.6237 20.3935 91.0339 20.5438 90.4909 20.841C90.3535 20.9162 90.2228 20.998 90.0988 21.0882C90.0519 20.9579 89.9798 20.8427 89.8792 20.7442C89.5156 20.3818 88.8352 20.3684 88.4481 20.7408C88.2554 20.9262 88.1582 21.1684 88.1582 21.4623V27.8285C88.1582 28.1108 88.2554 28.3513 88.4448 28.54C88.8319 28.9274 89.5189 28.9124 89.8826 28.5367C90.0653 28.3479 90.1591 28.1091 90.1591 27.8285V23.8037C90.1591 23.5048 90.2362 23.2493 90.3971 23.0238C90.5613 22.79 90.7875 22.6013 91.0707 22.461C91.6723 22.1604 92.5153 22.1871 93.0867 22.4693C93.38 22.613 93.6079 22.8284 93.7822 23.1273C93.9565 23.4263 94.047 23.8271 94.047 24.3198V27.8319C94.047 28.1141 94.1441 28.3546 94.3335 28.5433C94.5229 28.7337 94.7625 28.8289 95.0474 28.8289C95.3323 28.8289 95.5702 28.732 95.7613 28.5433L95.7579 28.54Z" fill="#052B63"/>
<path d="M98.0682 26.7981C98.4285 27.4327 98.9345 27.9404 99.5697 28.3112C100.205 28.6819 100.937 28.869 101.747 28.869C102.844 28.869 103.773 28.5233 104.515 27.8336C104.706 27.6432 104.791 27.411 104.763 27.1639C104.736 26.9267 104.612 26.7163 104.398 26.5393C104.22 26.389 104 26.3205 103.771 26.3405C103.555 26.3589 103.347 26.4491 103.151 26.6077C102.968 26.7564 102.764 26.8683 102.544 26.9384C102.32 27.0102 102.05 27.047 101.747 27.047C101.292 27.047 100.892 26.9417 100.555 26.7363C100.217 26.5292 99.9467 26.2437 99.7574 25.8896C99.5647 25.5322 99.4674 25.113 99.4674 24.6454C99.4674 24.1494 99.563 23.7152 99.7523 23.3561C99.94 22.9971 100.193 22.7265 100.527 22.5261C100.855 22.3291 101.242 22.2288 101.676 22.2288C102.301 22.2288 102.809 22.4443 103.233 22.8919C103.404 23.0622 103.598 23.1708 103.813 23.2142C104.046 23.2609 104.274 23.2142 104.468 23.0756C104.693 22.9136 104.835 22.7165 104.889 22.491C104.929 22.319 104.927 22.0568 104.688 21.7829C104.29 21.327 103.836 20.9813 103.335 20.7509C102.834 20.5221 102.276 20.4051 101.676 20.4051C100.877 20.4051 100.156 20.5872 99.5345 20.9479C98.9128 21.3086 98.4167 21.8163 98.0598 22.456C97.7045 23.0923 97.5252 23.8288 97.5252 24.6421C97.5252 25.4554 97.7079 26.1618 98.0682 26.7948V26.7981Z" fill="#052B63"/>
<path d="M106.645 26.7931C106.985 27.4277 107.459 27.9371 108.049 28.3062C108.644 28.6803 109.323 28.869 110.069 28.869C110.814 28.869 111.495 28.6803 112.088 28.3062C112.259 28.1993 112.42 28.0807 112.569 27.9521C112.592 28.1809 112.688 28.3797 112.849 28.54C113.227 28.9191 113.896 28.9191 114.275 28.54C114.466 28.3513 114.561 28.1108 114.561 27.8285V24.4684H114.558C114.531 23.7403 114.345 23.0739 114.002 22.4827C113.631 21.8447 113.124 21.3354 112.493 20.9663C111.862 20.5955 111.141 20.4085 110.352 20.4085C109.562 20.4085 108.839 20.5955 108.203 20.9663C107.568 21.3354 107.059 21.8464 106.688 22.4827C106.318 23.1207 106.129 23.8488 106.129 24.6438C106.129 25.4387 106.301 26.1602 106.64 26.7898L106.645 26.7931ZM111.518 26.7363C111.181 26.9417 110.789 27.047 110.355 27.047C109.921 27.047 109.546 26.9451 109.199 26.7363C108.854 26.5292 108.579 26.2403 108.378 25.8796C108.177 25.5172 108.074 25.103 108.074 24.6454C108.074 24.1878 108.177 23.7603 108.378 23.3979C108.577 23.0372 108.854 22.7499 109.199 22.5412C109.541 22.3357 109.931 22.2305 110.355 22.2305C110.779 22.2305 111.18 22.3357 111.518 22.5412C111.857 22.7482 112.128 23.0372 112.324 23.3962C112.522 23.7586 112.621 24.1795 112.621 24.6454C112.621 25.1114 112.52 25.5189 112.324 25.8813C112.128 26.242 111.857 26.5292 111.518 26.7363Z" fill="#052B63"/>
<path d="M121.128 22.4677C121.422 22.6113 121.649 22.8267 121.824 23.1257C121.998 23.4246 122.089 23.8254 122.089 24.3181V27.8302C122.089 28.1125 122.186 28.3529 122.375 28.5417C122.564 28.732 122.804 28.8272 123.089 28.8272C123.374 28.8272 123.612 28.7304 123.803 28.5417C123.994 28.3529 124.089 28.1125 124.089 27.8302V24.3181C124.089 23.4864 123.927 22.77 123.605 22.1888C123.28 21.6043 122.829 21.1517 122.266 20.8477C121.708 20.5471 121.07 20.3951 120.369 20.3951C119.669 20.3951 119.079 20.5454 118.536 20.8427C118.398 20.9179 118.268 20.9997 118.144 21.0899C118.097 20.9596 118.025 20.8444 117.924 20.7458C117.561 20.3834 116.88 20.3701 116.493 20.7425C116.3 20.9279 116.203 21.17 116.203 21.464V27.8302C116.203 28.1125 116.3 28.3529 116.49 28.5417C116.877 28.9291 117.564 28.9141 117.928 28.5383C118.11 28.3496 118.204 28.1108 118.204 27.8302V23.8054C118.204 23.5064 118.281 23.2509 118.442 23.0255C118.606 22.7917 118.832 22.6029 119.116 22.4627C119.717 22.162 120.56 22.1888 121.132 22.471L121.128 22.4677Z" fill="#052B63"/>
<path d="M133.998 24.45C133.971 23.7052 133.79 23.0338 133.459 22.451C133.097 21.8163 132.592 21.312 131.962 20.9513C131.332 20.5922 130.601 20.4085 129.795 20.4085C128.989 20.4085 128.243 20.5905 127.613 20.9513C126.982 21.312 126.479 21.8163 126.117 22.451C125.757 23.0839 125.572 23.8221 125.572 24.6471C125.572 25.4721 125.742 26.1902 126.077 26.8215C126.414 27.4561 126.881 27.9622 127.469 28.3229C128.059 28.6853 128.745 28.869 129.509 28.869C130.219 28.869 130.858 28.6836 131.406 28.3162C131.645 28.1559 131.863 27.9688 132.059 27.7551C132.046 28.2728 131.94 28.7153 131.749 29.0727C131.546 29.4535 131.27 29.7441 130.93 29.9362C130.204 30.347 129.249 30.2935 128.577 29.9829C128.227 29.8209 127.932 29.5921 127.706 29.3082C127.55 29.1028 127.344 28.9725 127.094 28.9208C126.834 28.8673 126.586 28.9208 126.35 29.0761C126.137 29.2214 126.006 29.4184 125.959 29.6589C125.911 29.9044 125.976 30.1516 126.149 30.3771C126.584 30.9215 127.124 31.3423 127.752 31.6246C128.378 31.9052 129.055 32.0488 129.768 32.0488C130.598 32.0488 131.34 31.8534 131.979 31.4676C132.614 31.0835 133.117 30.5557 133.472 29.9028C133.826 29.2514 134.007 28.5199 134.007 27.7267V24.4484H134.003L133.998 24.45ZM130.972 26.743C130.296 27.1472 129.289 27.1472 128.614 26.743C128.275 26.5409 128.004 26.2587 127.809 25.903C127.613 25.5456 127.513 25.1231 127.513 24.6471C127.513 24.1711 127.613 23.7453 127.809 23.3829C128.004 23.0238 128.275 22.7382 128.614 22.5361C128.951 22.3341 129.348 22.2322 129.794 22.2322C130.239 22.2322 130.635 22.3341 130.973 22.5361C131.312 22.7382 131.578 23.0221 131.769 23.3812C131.962 23.7453 132.061 24.1711 132.061 24.6471C132.061 25.1231 131.964 25.5473 131.771 25.9046C131.58 26.2587 131.312 26.5409 130.975 26.743H130.972Z" fill="#052B63"/>
<path d="M81.614 37.9157C81.1548 37.6551 80.6219 37.5232 80.0337 37.5232C79.3701 37.5232 78.7685 37.6685 78.249 37.9558C77.9842 38.1027 77.7462 38.2797 77.5384 38.4852C77.3407 38.2547 77.1077 38.0643 76.843 37.9157C76.3838 37.6551 75.8526 37.5232 75.2627 37.5232C74.6728 37.5232 74.0997 37.6702 73.6187 37.9624C73.5467 38.0059 73.4763 38.0526 73.4076 38.1027C73.3657 38.0242 73.3121 37.9524 73.2467 37.8873C72.8831 37.5249 72.2044 37.5132 71.8173 37.8839C71.6245 38.0693 71.5273 38.3115 71.5273 38.6054V44.9566C71.5273 45.2389 71.6245 45.4794 71.8139 45.6681C72.201 46.0555 72.8881 46.0405 73.2517 45.6647C73.4344 45.476 73.5282 45.2372 73.5282 44.9566V40.9318C73.5282 40.4659 73.664 40.0968 73.9422 39.8028C74.2153 39.5139 74.5538 39.3736 74.9778 39.3736C75.4018 39.3736 75.7034 39.4905 75.9481 39.7327C76.1894 39.9698 76.3117 40.354 76.3117 40.8767V44.9583C76.3117 45.2405 76.4089 45.481 76.5983 45.6697C76.9854 46.0572 77.6725 46.0422 78.0361 45.6664C78.2188 45.4777 78.3126 45.2389 78.3126 44.9583V40.9335C78.3126 40.4659 78.4467 40.0968 78.7199 39.8028C78.9897 39.5156 79.3248 39.3753 79.7471 39.3753C80.1694 39.3753 80.4727 39.4922 80.7174 39.7344C80.9587 39.9715 81.0811 40.3556 81.0811 40.8784V44.96C81.0811 45.2422 81.1783 45.481 81.3676 45.6714C81.557 45.8618 81.7983 45.957 82.0815 45.957C82.3647 45.957 82.6194 45.8601 82.8054 45.6681C82.9881 45.4794 83.082 45.2405 83.082 44.96V40.8784C83.082 40.1836 82.9546 39.5774 82.7015 39.0797C82.4435 38.572 82.0782 38.1812 81.6123 37.919L81.614 37.9157Z" fill="#052B63"/>
<path d="M92.4334 39.6141C92.0631 38.9762 91.5553 38.4668 90.9252 38.0977C90.2934 37.727 89.5728 37.5399 88.7835 37.5399C87.9942 37.5399 87.2703 37.727 86.6352 38.0977C86.0001 38.4668 85.4906 38.9778 85.1203 39.6141C84.7499 40.2521 84.5605 40.9802 84.5605 41.7752C84.5605 42.5701 84.7332 43.2916 85.0717 43.9212C85.4118 44.5558 85.8861 45.0652 86.476 45.4343C87.0709 45.8084 87.7496 45.9971 88.4953 45.9971C89.241 45.9971 89.9214 45.8084 90.5146 45.4343C90.6856 45.3274 90.8465 45.2088 90.9956 45.0802C91.0191 45.309 91.1146 45.5077 91.2755 45.6681C91.6542 46.0472 92.3228 46.0472 92.7016 45.6681C92.8926 45.4794 92.9881 45.2389 92.9881 44.9566V41.5965H92.9848C92.958 40.8683 92.7719 40.202 92.4284 39.6108L92.4334 39.6141ZM89.9482 43.8661C89.6114 44.0715 89.2193 44.1767 88.7852 44.1767C88.3512 44.1767 87.9758 44.0748 87.6289 43.8661C87.2837 43.659 87.0089 43.3701 86.8078 43.0093C86.6067 42.6469 86.5045 42.2328 86.5045 41.7752C86.5045 41.3176 86.6067 40.89 86.8078 40.5276C87.0072 40.1669 87.2837 39.8797 87.6289 39.6709C87.9708 39.4655 88.3613 39.3603 88.7852 39.3603C89.2092 39.3603 89.6097 39.4655 89.9482 39.6709C90.2867 39.878 90.5582 40.1669 90.7543 40.526C90.952 40.8884 91.0509 41.3092 91.0509 41.7752C91.0509 42.2411 90.9504 42.6486 90.7543 43.011C90.5582 43.3717 90.2867 43.659 89.9482 43.8661Z" fill="#052B63"/>
<path d="M100.694 37.9775C100.136 37.6769 99.4974 37.5249 98.7969 37.5249C98.0964 37.5249 97.5065 37.6752 96.9636 37.9725C96.8261 38.0476 96.6954 38.1294 96.5714 38.2196C96.5245 38.0894 96.4525 37.9741 96.3519 37.8756C95.9883 37.5132 95.3079 37.4998 94.9208 37.8723C94.7281 38.0576 94.6309 38.2998 94.6309 38.5937V44.96C94.6309 45.2422 94.7281 45.4827 94.9174 45.6714C95.3045 46.0589 95.9916 46.0438 96.3552 45.6681C96.5379 45.4794 96.6318 45.2405 96.6318 44.96V40.9351C96.6318 40.6362 96.7088 40.3807 96.8697 40.1552C97.0339 39.9214 97.2602 39.7327 97.5434 39.5924C98.145 39.2918 98.9879 39.3185 99.5594 39.6008C99.8526 39.7444 100.081 39.9598 100.255 40.2588C100.429 40.5577 100.52 40.9585 100.52 41.4512V44.9633C100.52 45.2455 100.617 45.486 100.806 45.6748C100.996 45.8651 101.235 45.9603 101.52 45.9603C101.805 45.9603 102.043 45.8635 102.234 45.6748C102.425 45.486 102.521 45.2455 102.521 44.9633V41.4512C102.521 40.6195 102.358 39.903 102.036 39.3219C101.711 38.7373 101.26 38.2848 100.697 37.9808L100.694 37.9775Z" fill="#052B63"/>
<path d="M108.008 43.9763H107.521C107.294 43.9763 107.115 43.8845 106.956 43.6891C106.785 43.4803 106.701 43.2231 106.701 42.9025V39.6459H107.65C107.919 39.6459 108.144 39.564 108.32 39.4037C108.498 39.24 108.593 39.0229 108.593 38.7791C108.593 38.5152 108.499 38.2898 108.32 38.1244C108.146 37.9641 107.919 37.8823 107.65 37.8823H106.701V36.0953C106.701 35.8131 106.607 35.5759 106.421 35.3906C106.049 35.0215 105.379 35.0215 105.009 35.3906C104.823 35.5759 104.729 35.8114 104.729 36.0953V37.8823H104.34C104.07 37.8823 103.844 37.9641 103.67 38.1244C103.49 38.2881 103.396 38.5152 103.396 38.7791C103.396 39.0246 103.49 39.24 103.67 39.4037C103.844 39.5657 104.07 39.6459 104.34 39.6459H104.729V42.9025C104.729 43.4669 104.849 43.9847 105.089 44.4406C105.33 44.8998 105.666 45.2673 106.086 45.5345C106.51 45.8034 106.993 45.9403 107.521 45.9403H107.779C108.092 45.9403 108.355 45.8518 108.561 45.6764C108.777 45.4927 108.893 45.2439 108.893 44.9583C108.893 44.6727 108.809 44.4489 108.645 44.2652C108.476 44.0765 108.255 43.9763 108.008 43.9763Z" fill="#052B63"/>
<path d="M117.615 39.6141C117.245 38.9762 116.737 38.4668 116.107 38.0977C115.475 37.727 114.754 37.5399 113.965 37.5399C113.176 37.5399 112.452 37.727 111.817 38.0977C111.182 38.4668 110.672 38.9778 110.302 39.6141C109.932 40.2521 109.742 40.9802 109.742 41.7752C109.742 42.5701 109.915 43.2916 110.253 43.9212C110.593 44.5558 111.068 45.0652 111.658 45.4343C112.253 45.8084 112.931 45.9971 113.677 45.9971C114.423 45.9971 115.103 45.8084 115.696 45.4343C115.867 45.3274 116.028 45.2088 116.177 45.0802C116.201 45.309 116.296 45.5077 116.457 45.6681C116.836 46.0472 117.504 46.0472 117.883 45.6681C118.074 45.4794 118.17 45.2389 118.17 44.9566V41.5965H118.166C118.14 40.8683 117.954 40.202 117.61 39.6108L117.615 39.6141ZM115.128 43.8661C114.791 44.0715 114.399 44.1767 113.965 44.1767C113.531 44.1767 113.156 44.0748 112.809 43.8661C112.464 43.659 112.189 43.3701 111.988 43.0093C111.787 42.6469 111.684 42.2328 111.684 41.7752C111.684 41.3176 111.787 40.89 111.988 40.5276C112.187 40.1669 112.464 39.8797 112.809 39.6709C113.151 39.4655 113.541 39.3603 113.965 39.3603C114.389 39.3603 114.79 39.4655 115.128 39.6709C115.467 39.878 115.738 40.1669 115.934 40.526C116.132 40.8884 116.231 41.3092 116.231 41.7752C116.231 42.2411 116.13 42.6486 115.934 43.011C115.738 43.3717 115.467 43.659 115.128 43.8661Z" fill="#052B63"/>
<path d="M126.328 38.1011C125.733 37.7286 125.053 37.5382 124.309 37.5382C123.705 37.5382 123.142 37.6652 122.635 37.9157C122.336 38.0626 122.061 38.243 121.813 38.4534V35.2519C121.813 34.9597 121.72 34.7192 121.534 34.5338C121.17 34.1714 120.49 34.1581 120.102 34.5305C119.91 34.7159 119.812 34.958 119.812 35.2519V41.7652C119.823 42.5601 120.014 43.2849 120.379 43.9212C120.744 44.5592 121.25 45.0702 121.88 45.4393C122.512 45.81 123.233 45.9971 124.022 45.9971C124.811 45.9971 125.547 45.81 126.179 45.4393C126.809 45.0702 127.315 44.5592 127.687 43.9229C128.057 43.2849 128.247 42.5584 128.247 41.7618C128.247 40.9652 128.074 40.2471 127.736 39.6158C127.395 38.9828 126.923 38.4735 126.331 38.1027L126.328 38.1011ZM124.02 44.1767C123.59 44.1767 123.211 44.0748 122.864 43.8661C122.521 43.659 122.247 43.3701 122.053 43.006C121.855 42.6386 121.755 42.2194 121.755 41.7618C121.755 41.3042 121.855 40.8784 122.051 40.521C122.246 40.1652 122.521 39.8797 122.864 39.6726C123.208 39.4672 123.596 39.3619 124.02 39.3619C124.444 39.3619 124.845 39.4672 125.183 39.6726C125.525 39.8813 125.798 40.1669 125.998 40.5243C126.199 40.8817 126.299 41.2992 126.299 41.7635C126.299 42.2278 126.197 42.6369 125.996 43.0043C125.797 43.3701 125.522 43.6607 125.182 43.8678C124.845 44.0732 124.454 44.1784 124.019 44.1784L124.02 44.1767Z" fill="#052B63"/>
</svg>
